<?xml version="1.0" encoding="UTF-8"?><svg id="Layer_1" xmlns="http://www.w3.org/2000/svg" viewBox="0 0 120 120"><defs><style>.cls-1{fill:#2e2e2e;}</style></defs><path class="cls-1" d="m54.69,120-.97-4.67c-1.87-11.81,1.73-23.42,8.82-33.19,2.82-20.41-7.91-40.32-25.06-53.16,0,0-.03.03-.03.03,18.08,11.67,28.57,31.52,27.39,51.48,11.84-10.73,26.88-21.56,30.13-37.19-3.25,26.65-43.85,38.59-37.65,67.99,0,4.23,2.76,5.31-2.62,8.72"/><path class="cls-1" d="m20.29,26.94C19.26,35.91,9.51,41.75.01,41.92c-.43-9.72,9.83-18.14,20.23-16.95-6.77,1.01-12.88,5.33-14.16,11.6,6.44.23,12.09-4.39,14.2-9.63Z"/><path class="cls-1" d="m95.28,29.38c1.71-5.44.75-12.26-4.72-15.69-3.13,5.1-.98,10.77,2.5,15.12-7.71-5.12-8.81-14.99-4.62-22.33,8.8,4.18,12.73,15.53,6.8,22.88,0,0,.03.02.03.02Z"/><path class="cls-1" d="m60.07,12.61c2.11,7.8-3.33,17.13-12.49,18.26,5.24-2.29,9.21-7.22,8.5-12.61-5.46,1.55-8.48,5.97-9.28,10.86-1.2-7.63,5.33-14.6,13.27-16.52Z"/><path class="cls-1" d="m24.97,20.17c-3.83-3.5-9.7-5.09-14.92-3.26,2.74,4.07,8.55,5.92,13.65,5.11l-.02-.02c-7.18,3.51-16.49-.99-20.8-6.81,7.21-4.37,19.29-1.88,22.99,5.76"/><path class="cls-1" d="m67.05,69.81c-3.55-6.71,1.64-14.94,8.37-18.58,4.69,6.88,1.26,17.05-7.12,20.42l.03.03c4.05-3.63,7.08-8.75,4.94-14.04-4.73,2.16-6.97,7.6-6.2,12.18h-.01Z"/><path class="cls-1" d="m86.5,64.38c2.95,4.63,8.56,7.96,14.64,6.96-1.87-4.72-7.4-7.43-12.8-7.54,8.46-1.79,16.62,3.71,19.4,10.7-8.85,2.53-19.18-1.92-21.24-10.12Z"/><path class="cls-1" d="m54.78,57.63c-3.18,7.08-12.31,10-20.24,8.53.87-7.18,13.4-13.96,20.73-10.67-5.95-.28-11.81,2.2-14.23,7.22,5.36,1.51,10.29-1.69,13.78-5.06l-.03-.02Z"/><path class="cls-1" d="m26.39,24.4c-3.46,3.96-4.69,9.91-1.67,14.34,3.84-2.31,5.11-9.09,3.51-13.28,4.42,6.59,1.9,15.11-4.35,19.99-6.02-6.58-4.59-16.57,2.51-21.05Z"/><path class="cls-1" d="m43.69,27.57c1.2-5.13-1.5-10.72-6.56-13.36-1.8,4.76.45,9.6,4.48,12.84-7.65-2.93-9.96-12.14-7.59-18.94,8.29,2.43,14.2,12.62,9.67,19.45h0Z"/><path class="cls-1" d="m51.71,31.99c6.07-3.32,14.08-.48,18.36,4.13-5.72,4.45-16.04,3.05-20.02-2.94,3.69,2.97,9.29,4.3,13.81,2.08-2.86-3.31-7.82-4.12-12.18-3.3l.03.03Z"/><path class="cls-1" d="m62.68,24.54c2.14-5.92,8.5-9.53,15.33-9.09-.12,5.25-6.04,12.08-15.09,11.27,4.43-.95,9.52-3.32,10.26-7.79-4.66-.55-7.94,2.88-10.5,5.62Z"/><path class="cls-1" d="m82.14,27.32c.61,3.31,4.16,6.13,9.23,7.29-6.93.59-12.72-4.62-14.31-10.41,6.86-1.95,15.6,3.43,16.23,10.1-1.86-3.96-6.13-7.46-11.16-6.98Z"/><path class="cls-1" d="m96.33,34.97c4.63-1.1,8.68-4.33,9.29-8.78-4.77.26-8.05,3.39-9.75,7.23.7-6.49,7.06-10.63,13.92-11.23.73,5.15-4.39,12.83-13.45,12.77Z"/><path class="cls-1" d="m66.78,1.08c3.95,4.35,3.28,11.85-2.38,15.32,2.43-2.98,3.78-6.98,1.65-10.45-3.03,1.96-3.83,5.3-3.04,9.22-3.04-4.76-.73-10.72,3.77-14.09Z"/><path class="cls-1" d="m51.34,0c3.93,4.18,3.28,11.75-2.17,15.12,2.2-2.97,3.65-7,1.38-10.32-3.2,2.27-3.79,5.97-2.89,9.42-3.09-4.92-1-10.65,3.69-14.22Z"/><path class="cls-1" d="m102.95,9.17c-3.03,2.46-3.86,5.99-2.77,9.5-2.36-3.29-2.39-9.79,3.61-14.2,4.17,3.47,2.81,12.67-2.08,15,2.07-2.91,3.66-7.07,1.25-10.3Z"/><path class="cls-1" d="m101.22,63.74c3.72,1.26,8.34,1.01,11.23-1.61-2.62-2.32-7.24-1.63-10.32-.15,3.5-3.89,11.19-3.45,15.7-.72-2.56,4.2-11.2,6.49-16.61,2.48Z"/><path class="cls-1" d="m88.85,61.86c4.17.38,8.34-1.1,10.38-4.46-3.65-1.22-7.46.43-10.01,2.87,1.82-4.47,10.29-6.76,14.81-4.87-1.82,5.31-9.73,8.93-15.17,6.46Z"/><path class="cls-1" d="m83.78,66.86c-2.05,3.03-1.28,7.28,1.34,9.87,2.64-2.36,1.83-6.43.27-9.28,4.06,3.23,3.85,10.12.59,14.04-5.04-2.24-6.39-11.41-2.58-14.71.12.02.24.05.37.08h0Z"/><path class="cls-1" d="m53,52.97c-5.68.88-11.07-2.1-13.36-7.15,4.73-2.01,12.89,0,15.26,6.21-2.47-2.68-6.35-5.21-10.48-4.15,1.27,3.16,5.04,4.74,8.58,5.09Z"/><path class="cls-1" d="m57.88,59.88c2.87,3.74,1.12,10.58-3.45,13.7-4.03-4.37-3.37-11.92,2.14-15.06-2.71,2.96-3.56,6.94-1.47,10.35,3.1-2.14,3.49-5.74,2.78-8.99Z"/><path class="cls-1" d="m49.29,66.55c-3.27,1.63-5.66,4.4-5.19,7.79,3.34-.73,5-3.57,5.88-6.25.41,4.33-3.5,8.88-8.36,9.75-1.52-3.85,1.38-10.24,7.67-11.29Z"/><path class="cls-1" d="m34.14,28.82c4.81,1.72,7.5,6.07,6.98,10.64-5.2-.18-9.66-5.11-9.1-10.01,1.08,2.53,2.59,6.02,6.29,6.69.69-3.13-2.08-5.38-4.16-7.3h0Z"/><path class="cls-1" d="m23.82,65.54c3.58.13,6.11-1.19,8.07-3.56-1.14,4.26-7.15,6.45-11.88,5.84.81-4.94,6.22-8.48,11.67-7.81-2.93.92-6.92,2.11-7.86,5.53Z"/><path class="cls-1" d="m92.62,37.76c-.71,4.53-6.28,7.16-11.09,7.12-.47-4.23,4.9-9.22,11.07-8.97-3.36,1.18-6.8,2.58-7.6,6.13,3.16.55,6.11-1.91,7.65-4.24l-.03-.03Z"/><path class="cls-1" d="m98.82,38.42c2.27,2.25,5.87,3.64,9.2,2.72-.83-2.81-4.9-3.76-7.84-3.93,4.42-1.32,9.76.93,12.32,5.2-4.35,2.55-11.93.3-13.69-4Z"/><path class="cls-1" d="m108.48,55.23c1.52-4.25,6.74-6.68,11.52-6.23-.26,4.87-5.57,8.75-11.46,8.29,3.37-.78,7.05-2.34,7.72-5.72-3.31-.59-5.78,1.9-7.82,3.64l.03.02Z"/><path class="cls-1" d="m24.45,50.74c-3.56,3.04-10.08,1.64-13.41-1.32,2.46-2.89,9.94-4.38,14.47-.17-2.91-1.02-7.09-2-9.79.25,1.56,1.77,6.02,2.47,8.75,1.24,0,0-.02,0-.02,0Z"/><path class="cls-1" d="m65.5,56.53c1.57-2.68.89-6.74-1.87-8.64-1.62,2.42-1.34,5.46.23,7.87-3.88-2.68-3.47-8.49-.93-12.05,4.46,2.44,6.53,9.63,2.6,12.81l-.03.02Z"/><path class="cls-1" d="m81.02,59.8c2.96-1.57,5.29-4.66,4.77-7.79-3.35.84-5.08,3.6-5.75,6.54-.63-4.74,3.25-8.74,8.02-10.15,2.06,4-1.94,10.82-7.04,11.39Z"/><path class="cls-1" d="m94.25,84.12c1.77-2.58.88-5.42-.46-7.95,3.43,2.39,4.08,8.03,1.44,11.96-4.2-1.7-6.94-8.41-3.34-12.76-1.1,3.19-.52,6.6,2.36,8.76Z"/><path class="cls-1" d="m79.87,75.25c2.59,3.79-.2,9.07-3.83,11.67-3.49-3.1-2.08-10.98,2.55-12.89-2.35,2.54-3.36,5.76-1.79,8.81,2.79-1.64,3.52-4.8,3.06-7.61v.02Z"/><path class="cls-1" d="m26.15,53.54c3.1-3.26,10.53-4.02,14.65-.04-3.16-1.36-6.91-1.98-10,.07,2.16,2.13,5.65,2.23,8.59,1.5-3.71,2.74-9.89,1.4-13.23-1.52Z"/><path class="cls-1" d="m73.56,45.62c-2.31.46-3.37,2.4-4.18,4.21-.2-2.99,2.11-5.67,5.82-6.84,1.53,3.17-1.19,7.62-4.98,8.29,2.12-1.37,3.74-3.3,3.34-5.65Z"/><path class="cls-1" d="m56.96,80.29c-2.04-3.06-.8-7.38,2.57-9.07-1.34,1.78-2.62,3.89-1.62,6.1,2.1-.94,2.9-3.06,2.91-5.07,1.45,2.99-.98,6.42-3.86,8.04Z"/><path class="cls-1" d="m100.53,43.15c2.33,1.76,3,4.6,1.85,7.64-2.88-.37-5.82-5.03-3.8-8.02-.21,2.06.52,4.33,2.59,5.39,1.07-1.74,0-3.27-.64-5.01Z"/><path class="cls-1" d="m52.86,38.96c.85,2.01,2.3,3.97,4.83,4.19.02-1.72-.77-2.82-3.1-4.44,2.97.46,5.4,3.46,5.29,6.53-3.35.44-6.94-2.69-7.02-6.28Z"/><path class="cls-1" d="m79.86,75.23c0-.05.02-.11.02-.11,0-.02,0,.14-.02.11Z"/><path class="cls-1" d="m83.77,66.87c-.05-.09-.12-.17-.14-.27.09.06.13.17.14.27Z"/><path class="cls-1" d="m54.81,57.66c.02-.08.04-.16.06-.25.12.09-.03.14-.09.22,0,0,.03.02.03.02Z"/><path class="cls-1" d="m92.65,37.79c.04-.05.08-.1.12-.15-.05.04-.1.08-.16.12,0,0,.03.03.03.03Z"/><path class="cls-1" d="m62.69,24.54c0,.06,0,.13.01.19,0-.06-.02-.12-.03-.18,0,0,.01,0,.01,0Z"/><path class="cls-1" d="m43.7,27.57c.03.09.05.19.08.28h-.03c-.01-.09-.04-.18-.05-.28Z"/><path class="cls-1" d="m34.15,28.83h-.16s.12-.03.16,0Z"/><path class="cls-1" d="m95.25,29.35c.09.1-.01.18-.06.28-.03-.02-.06-.04-.09-.06.06-.06.12-.13.19-.19,0,0-.03-.02-.03-.02Z"/><path class="cls-1" d="m51.68,31.96l-.18.11c.07-.03.14-.06.21-.09,0,0-.03-.02-.03-.02Z"/><path class="cls-1" d="m24.47,50.74c.08.02.16.03.24.05-.07-.02-.23-.03-.24-.05Z"/></svg>